<?xml version='1.0' encoding='UTF-8'?>
<svg width="57mm" height="57mm" version="1.1" viewBox="0 0 57 57" xmlns="http://www.w3.org/2000/svg"><path d="M4,4H5V5H4zM5,4H6V5H5zM6,4H7V5H6zM7,4H8V5H7zM8,4H9V5H8zM9,4H10V5H9zM10,4H11V5H10zM12,4H13V5H12zM13,4H14V5H13zM15,4H16V5H15zM20,4H21V5H20zM21,4H22V5H21zM22,4H23V5H22zM24,4H25V5H24zM27,4H28V5H27zM31,4H32V5H31zM35,4H36V5H35zM37,4H38V5H37zM38,4H39V5H38zM44,4H45V5H44zM46,4H47V5H46zM47,4H48V5H47zM48,4H49V5H48zM49,4H50V5H49zM50,4H51V5H50zM51,4H52V5H51zM52,4H53V5H52zM4,5H5V6H4zM10,5H11V6H10zM16,5H17V6H16zM17,5H18V6H17zM18,5H19V6H18zM19,5H20V6H19zM22,5H23V6H22zM26,5H27V6H26zM28,5H29V6H28zM31,5H32V6H31zM32,5H33V6H32zM37,5H38V6H37zM38,5H39V6H38zM40,5H41V6H40zM42,5H43V6H42zM43,5H44V6H43zM44,5H45V6H44zM46,5H47V6H46zM52,5H53V6H52zM4,6H5V7H4zM6,6H7V7H6zM7,6H8V7H7zM8,6H9V7H8zM10,6H11V7H10zM13,6H14V7H13zM14,6H15V7H14zM15,6H16V7H15zM18,6H19V7H18zM19,6H20V7H19zM23,6H24V7H23zM25,6H26V7H25zM28,6H29V7H28zM29,6H30V7H29zM30,6H31V7H30zM31,6H32V7H31zM32,6H33V7H32zM33,6H34V7H33zM34,6H35V7H34zM35,6H36V7H35zM38,6H39V7H38zM39,6H40V7H39zM43,6H44V7H43zM44,6H45V7H44zM46,6H47V7H46zM48,6H49V7H48zM49,6H50V7H49zM50,6H51V7H50zM52,6H53V7H52zM4,7H5V8H4zM6,7H7V8H6zM7,7H8V8H7zM8,7H9V8H8zM10,7H11V8H10zM12,7H13V8H12zM16,7H17V8H16zM18,7H19V8H18zM19,7H20V8H19zM23,7H24V8H23zM26,7H27V8H26zM27,7H28V8H27zM28,7H29V8H28zM29,7H30V8H29zM30,7H31V8H30zM31,7H32V8H31zM33,7H34V8H33zM35,7H36V8H35zM36,7H37V8H36zM37,7H38V8H37zM43,7H44V8H43zM46,7H47V8H46zM48,7H49V8H48zM49,7H50V8H49zM50,7H51V8H50zM52,7H53V8H52zM4,8H5V9H4zM6,8H7V9H6zM7,8H8V9H7zM8,8H9V9H8zM10,8H11V9H10zM17,8H18V9H17zM19,8H20V9H19zM21,8H22V9H21zM23,8H24V9H23zM24,8H25V9H24zM25,8H26V9H25zM26,8H27V9H26zM27,8H28V9H27zM28,8H29V9H28zM29,8H30V9H29zM30,8H31V9H30zM33,8H34V9H33zM36,8H37V9H36zM37,8H38V9H37zM39,8H40V9H39zM46,8H47V9H46zM48,8H49V9H48zM49,8H50V9H49zM50,8H51V9H50zM52,8H53V9H52zM4,9H5V10H4zM10,9H11V10H10zM14,9H15V10H14zM16,9H17V10H16zM20,9H21V10H20zM22,9H23V10H22zM26,9H27V10H26zM30,9H31V10H30zM32,9H33V10H32zM34,9H35V10H34zM35,9H36V10H35zM36,9H37V10H36zM37,9H38V10H37zM40,9H41V10H40zM41,9H42V10H41zM42,9H43V10H42zM46,9H47V10H46zM52,9H53V10H52zM4,10H5V11H4zM5,10H6V11H5zM6,10H7V11H6zM7,10H8V11H7zM8,10H9V11H8zM9,10H10V11H9zM10,10H11V11H10zM12,10H13V11H12zM14,10H15V11H14zM16,10H17V11H16zM18,10H19V11H18zM20,10H21V11H20zM22,10H23V11H22zM24,10H25V11H24zM26,10H27V11H26zM28,10H29V11H28zM30,10H31V11H30zM32,10H33V11H32zM34,10H35V11H34zM36,10H37V11H36zM38,10H39V11H38zM40,10H41V11H40zM42,10H43V11H42zM44,10H45V11H44zM46,10H47V11H46zM47,10H48V11H47zM48,10H49V11H48zM49,10H50V11H49zM50,10H51V11H50zM51,10H52V11H51zM52,10H53V11H52zM13,11H14V12H13zM14,11H15V12H14zM15,11H16V12H15zM17,11H18V12H17zM19,11H20V12H19zM22,11H23V12H22zM23,11H24V12H23zM24,11H25V12H24zM25,11H26V12H25zM26,11H27V12H26zM30,11H31V12H30zM34,11H35V12H34zM35,11H36V12H35zM37,11H38V12H37zM41,11H42V12H41zM43,11H44V12H43zM6,12H7V13H6zM8,12H9V13H8zM9,12H10V13H9zM10,12H11V13H10zM12,12H13V13H12zM13,12H14V13H13zM14,12H15V13H14zM16,12H17V13H16zM18,12H19V13H18zM19,12H20V13H19zM20,12H21V13H20zM21,12H22V13H21zM24,12H25V13H24zM26,12H27V13H26zM27,12H28V13H27zM28,12H29V13H28zM29,12H30V13H29zM30,12H31V13H30zM31,12H32V13H31zM33,12H34V13H33zM35,12H36V13H35zM36,12H37V13H36zM37,12H38V13H37zM40,12H41V13H40zM41,12H42V13H41zM45,12H46V13H45zM49,12H50V13H49zM52,12H53V13H52zM4,13H5V14H4zM5,13H6V14H5zM7,13H8V14H7zM9,13H10V14H9zM13,13H14V14H13zM14,13H15V14H14zM15,13H16V14H15zM16,13H17V14H16zM21,13H22V14H21zM23,13H24V14H23zM26,13H27V14H26zM29,13H30V14H29zM30,13H31V14H30zM32,13H33V14H32zM36,13H37V14H36zM38,13H39V14H38zM42,13H43V14H42zM43,13H44V14H43zM45,13H46V14H45zM46,13H47V14H46zM49,13H50V14H49zM51,13H52V14H51zM5,14H6V15H5zM6,14H7V15H6zM10,14H11V15H10zM12,14H13V15H12zM17,14H18V15H17zM18,14H19V15H18zM21,14H22V15H21zM25,14H26V15H25zM29,14H30V15H29zM30,14H31V15H30zM35,14H36V15H35zM37,14H38V15H37zM40,14H41V15H40zM43,14H44V15H43zM44,14H45V15H44zM52,14H53V15H52zM4,15H5V16H4zM8,15H9V16H8zM9,15H10V16H9zM14,15H15V16H14zM19,15H20V16H19zM23,15H24V16H23zM25,15H26V16H25zM26,15H27V16H26zM27,15H28V16H27zM30,15H31V16H30zM32,15H33V16H32zM33,15H34V16H33zM36,15H37V16H36zM39,15H40V16H39zM40,15H41V16H40zM43,15H44V16H43zM44,15H45V16H44zM46,15H47V16H46zM47,15H48V16H47zM48,15H49V16H48zM49,15H50V16H49zM50,15H51V16H50zM4,16H5V17H4zM7,16H8V17H7zM10,16H11V17H10zM11,16H12V17H11zM14,16H15V17H14zM17,16H18V17H17zM19,16H20V17H19zM22,16H23V17H22zM25,16H26V17H25zM26,16H27V17H26zM30,16H31V17H30zM31,16H32V17H31zM33,16H34V17H33zM34,16H35V17H34zM35,16H36V17H35zM36,16H37V17H36zM37,16H38V17H37zM38,16H39V17H38zM39,16H40V17H39zM41,16H42V17H41zM42,16H43V17H42zM43,16H44V17H43zM47,16H48V17H47zM48,16H49V17H48zM49,16H50V17H49zM51,16H52V17H51zM52,16H53V17H52zM4,17H5V18H4zM6,17H7V18H6zM8,17H9V18H8zM11,17H12V18H11zM13,17H14V18H13zM14,17H15V18H14zM17,17H18V18H17zM19,17H20V18H19zM20,17H21V18H20zM22,17H23V18H22zM24,17H25V18H24zM29,17H30V18H29zM32,17H33V18H32zM34,17H35V18H34zM35,17H36V18H35zM37,17H38V18H37zM38,17H39V18H38zM39,17H40V18H39zM41,17H42V18H41zM45,17H46V18H45zM46,17H47V18H46zM48,17H49V18H48zM50,17H51V18H50zM52,17H53V18H52zM8,18H9V19H8zM10,18H11V19H10zM11,18H12V19H11zM13,18H14V19H13zM14,18H15V19H14zM17,18H18V19H17zM20,18H21V19H20zM23,18H24V19H23zM26,18H27V19H26zM27,18H28V19H27zM28,18H29V19H28zM29,18H30V19H29zM32,18H33V19H32zM33,18H34V19H33zM34,18H35V19H34zM35,18H36V19H35zM38,18H39V19H38zM39,18H40V19H39zM40,18H41V19H40zM42,18H43V19H42zM44,18H45V19H44zM46,18H47V19H46zM47,18H48V19H47zM51,18H52V19H51zM52,18H53V19H52zM6,19H7V20H6zM7,19H8V20H7zM8,19H9V20H8zM11,19H12V20H11zM12,19H13V20H12zM14,19H15V20H14zM16,19H17V20H16zM18,19H19V20H18zM19,19H20V20H19zM20,19H21V20H20zM21,19H22V20H21zM22,19H23V20H22zM24,19H25V20H24zM26,19H27V20H26zM28,19H29V20H28zM32,19H33V20H32zM33,19H34V20H33zM34,19H35V20H34zM36,19H37V20H36zM38,19H39V20H38zM40,19H41V20H40zM42,19H43V20H42zM43,19H44V20H43zM45,19H46V20H45zM48,19H49V20H48zM50,19H51V20H50zM4,20H5V21H4zM5,20H6V21H5zM6,20H7V21H6zM7,20H8V21H7zM10,20H11V21H10zM11,20H12V21H11zM14,20H15V21H14zM15,20H16V21H15zM21,20H22V21H21zM23,20H24V21H23zM24,20H25V21H24zM25,20H26V21H25zM26,20H27V21H26zM28,20H29V21H28zM29,20H30V21H29zM31,20H32V21H31zM32,20H33V21H32zM39,20H40V21H39zM40,20H41V21H40zM43,20H44V21H43zM44,20H45V21H44zM45,20H46V21H45zM46,20H47V21H46zM47,20H48V21H47zM48,20H49V21H48zM50,20H51V21H50zM52,20H53V21H52zM4,21H5V22H4zM5,21H6V22H5zM6,21H7V22H6zM16,21H17V22H16zM17,21H18V22H17zM19,21H20V22H19zM22,21H23V22H22zM23,21H24V22H23zM25,21H26V22H25zM27,21H28V22H27zM28,21H29V22H28zM29,21H30V22H29zM32,21H33V22H32zM34,21H35V22H34zM35,21H36V22H35zM38,21H39V22H38zM40,21H41V22H40zM42,21H43V22H42zM43,21H44V22H43zM45,21H46V22H45zM47,21H48V22H47zM49,21H50V22H49zM50,21H51V22H50zM51,21H52V22H51zM52,21H53V22H52zM4,22H5V23H4zM6,22H7V23H6zM7,22H8V23H7zM8,22H9V23H8zM9,22H10V23H9zM10,22H11V23H10zM12,22H13V23H12zM14,22H15V23H14zM20,22H21V23H20zM21,22H22V23H21zM22,22H23V23H22zM24,22H25V23H24zM27,22H28V23H27zM28,22H29V23H28zM29,22H30V23H29zM30,22H31V23H30zM32,22H33V23H32zM33,22H34V23H33zM34,22H35V23H34zM36,22H37V23H36zM38,22H39V23H38zM42,22H43V23H42zM43,22H44V23H43zM44,22H45V23H44zM45,22H46V23H45zM46,22H47V23H46zM47,22H48V23H47zM48,22H49V23H48zM50,22H51V23H50zM51,22H52V23H51zM52,22H53V23H52zM6,23H7V24H6zM8,23H9V24H8zM12,23H13V24H12zM13,23H14V24H13zM15,23H16V24H15zM20,23H21V24H20zM22,23H23V24H22zM26,23H27V24H26zM31,23H32V24H31zM34,23H35V24H34zM35,23H36V24H35zM39,23H40V24H39zM40,23H41V24H40zM41,23H42V24H41zM43,23H44V24H43zM48,23H49V24H48zM49,23H50V24H49zM51,23H52V24H51zM52,23H53V24H52zM5,24H6V25H5zM9,24H10V25H9zM10,24H11V25H10zM11,24H12V25H11zM14,24H15V25H14zM15,24H16V25H15zM16,24H17V25H16zM17,24H18V25H17zM19,24H20V25H19zM25,24H26V25H25zM27,24H28V25H27zM28,24H29V25H28zM30,24H31V25H30zM37,24H38V25H37zM41,24H42V25H41zM44,24H45V25H44zM46,24H47V25H46zM47,24H48V25H47zM48,24H49V25H48zM51,24H52V25H51zM6,25H7V26H6zM7,25H8V26H7zM12,25H13V26H12zM13,25H14V26H13zM14,25H15V26H14zM15,25H16V26H15zM16,25H17V26H16zM18,25H19V26H18zM23,25H24V26H23zM24,25H25V26H24zM25,25H26V26H25zM27,25H28V26H27zM31,25H32V26H31zM32,25H33V26H32zM33,25H34V26H33zM34,25H35V26H34zM35,25H36V26H35zM36,25H37V26H36zM41,25H42V26H41zM43,25H44V26H43zM47,25H48V26H47zM49,25H50V26H49zM51,25H52V26H51zM52,25H53V26H52zM5,26H6V27H5zM8,26H9V27H8zM9,26H10V27H9zM10,26H11V27H10zM11,26H12V27H11zM12,26H13V27H12zM15,26H16V27H15zM17,26H18V27H17zM20,26H21V27H20zM22,26H23V27H22zM25,26H26V27H25zM26,26H27V27H26zM27,26H28V27H27zM28,26H29V27H28zM29,26H30V27H29zM30,26H31V27H30zM32,26H33V27H32zM33,26H34V27H33zM34,26H35V27H34zM35,26H36V27H35zM37,26H38V27H37zM40,26H41V27H40zM41,26H42V27H41zM44,26H45V27H44zM45,26H46V27H45zM46,26H47V27H46zM47,26H48V27H47zM48,26H49V27H48zM52,26H53V27H52zM4,27H5V28H4zM6,27H7V28H6zM7,27H8V28H7zM8,27H9V28H8zM12,27H13V28H12zM13,27H14V28H13zM14,27H15V28H14zM16,27H17V28H16zM19,27H20V28H19zM21,27H22V28H21zM22,27H23V28H22zM25,27H26V28H25zM26,27H27V28H26zM30,27H31V28H30zM33,27H34V28H33zM34,27H35V28H34zM37,27H38V28H37zM38,27H39V28H38zM39,27H40V28H39zM40,27H41V28H40zM42,27H43V28H42zM43,27H44V28H43zM44,27H45V28H44zM48,27H49V28H48zM5,28H6V29H5zM8,28H9V29H8zM10,28H11V29H10zM12,28H13V29H12zM15,28H16V29H15zM22,28H23V29H22zM25,28H26V29H25zM26,28H27V29H26zM28,28H29V29H28zM30,28H31V29H30zM31,28H32V29H31zM32,28H33V29H32zM33,28H34V29H33zM36,28H37V29H36zM37,28H38V29H37zM38,28H39V29H38zM40,28H41V29H40zM43,28H44V29H43zM44,28H45V29H44zM46,28H47V29H46zM48,28H49V29H48zM52,28H53V29H52zM4,29H5V30H4zM7,29H8V30H7zM8,29H9V30H8zM12,29H13V30H12zM13,29H14V30H13zM15,29H16V30H15zM16,29H17V30H16zM17,29H18V30H17zM18,29H19V30H18zM19,29H20V30H19zM20,29H21V30H20zM22,29H23V30H22zM24,29H25V30H24zM25,29H26V30H25zM26,29H27V30H26zM30,29H31V30H30zM33,29H34V30H33zM40,29H41V30H40zM44,29H45V30H44zM48,29H49V30H48zM49,29H50V30H49zM6,30H7V31H6zM7,30H8V31H7zM8,30H9V31H8zM9,30H10V31H9zM10,30H11V31H10zM11,30H12V31H11zM12,30H13V31H12zM15,30H16V31H15zM16,30H17V31H16zM17,30H18V31H17zM19,30H20V31H19zM20,30H21V31H20zM23,30H24V31H23zM24,30H25V31H24zM26,30H27V31H26zM27,30H28V31H27zM28,30H29V31H28zM29,30H30V31H29zM30,30H31V31H30zM31,30H32V31H31zM34,30H35V31H34zM36,30H37V31H36zM39,30H40V31H39zM43,30H44V31H43zM44,30H45V31H44zM45,30H46V31H45zM46,30H47V31H46zM47,30H48V31H47zM48,30H49V31H48zM50,30H51V31H50zM52,30H53V31H52zM4,31H5V32H4zM8,31H9V32H8zM11,31H12V32H11zM12,31H13V32H12zM14,31H15V32H14zM17,31H18V32H17zM20,31H21V32H20zM21,31H22V32H21zM22,31H23V32H22zM23,31H24V32H23zM27,31H28V32H27zM28,31H29V32H28zM29,31H30V32H29zM31,31H32V32H31zM32,31H33V32H32zM35,31H36V32H35zM37,31H38V32H37zM38,31H39V32H38zM39,31H40V32H39zM40,31H41V32H40zM42,31H43V32H42zM43,31H44V32H43zM44,31H45V32H44zM46,31H47V32H46zM47,31H48V32H47zM48,31H49V32H48zM6,32H7V33H6zM9,32H10V33H9zM10,32H11V33H10zM11,32H12V33H11zM13,32H14V33H13zM15,32H16V33H15zM19,32H20V33H19zM20,32H21V33H20zM21,32H22V33H21zM22,32H23V33H22zM24,32H25V33H24zM25,32H26V33H25zM26,32H27V33H26zM27,32H28V33H27zM30,32H31V33H30zM32,32H33V33H32zM33,32H34V33H33zM34,32H35V33H34zM35,32H36V33H35zM38,32H39V33H38zM40,32H41V33H40zM41,32H42V33H41zM44,32H45V33H44zM46,32H47V33H46zM48,32H49V33H48zM49,32H50V33H49zM52,32H53V33H52zM6,33H7V34H6zM7,33H8V34H7zM8,33H9V34H8zM11,33H12V34H11zM12,33H13V34H12zM13,33H14V34H13zM15,33H16V34H15zM16,33H17V34H16zM19,33H20V34H19zM20,33H21V34H20zM24,33H25V34H24zM26,33H27V34H26zM30,33H31V34H30zM32,33H33V34H32zM35,33H36V34H35zM36,33H37V34H36zM38,33H39V34H38zM40,33H41V34H40zM41,33H42V34H41zM42,33H43V34H42zM45,33H46V34H45zM48,33H49V34H48zM4,34H5V35H4zM5,34H6V35H5zM7,34H8V35H7zM9,34H10V35H9zM10,34H11V35H10zM11,34H12V35H11zM12,34H13V35H12zM13,34H14V35H13zM17,34H18V35H17zM18,34H19V35H18zM20,34H21V35H20zM21,34H22V35H21zM23,34H24V35H23zM24,34H25V35H24zM25,34H26V35H25zM27,34H28V35H27zM29,34H30V35H29zM32,34H33V35H32zM34,34H35V35H34zM35,34H36V35H35zM37,34H38V35H37zM39,34H40V35H39zM42,34H43V35H42zM44,34H45V35H44zM45,34H46V35H45zM46,34H47V35H46zM51,34H52V35H51zM52,34H53V35H52zM7,35H8V36H7zM8,35H9V36H8zM11,35H12V36H11zM12,35H13V36H12zM13,35H14V36H13zM17,35H18V36H17zM18,35H19V36H18zM19,35H20V36H19zM20,35H21V36H20zM25,35H26V36H25zM28,35H29V36H28zM29,35H30V36H29zM31,35H32V36H31zM33,35H34V36H33zM35,35H36V36H35zM37,35H38V36H37zM39,35H40V36H39zM45,35H46V36H45zM46,35H47V36H46zM48,35H49V36H48zM49,35H50V36H49zM52,35H53V36H52zM7,36H8V37H7zM9,36H10V37H9zM10,36H11V37H10zM11,36H12V37H11zM14,36H15V37H14zM16,36H17V37H16zM17,36H18V37H17zM18,36H19V37H18zM19,36H20V37H19zM20,36H21V37H20zM21,36H22V37H21zM23,36H24V37H23zM24,36H25V37H24zM28,36H29V37H28zM30,36H31V37H30zM31,36H32V37H31zM34,36H35V37H34zM35,36H36V37H35zM37,36H38V37H37zM39,36H40V37H39zM41,36H42V37H41zM45,36H46V37H45zM47,36H48V37H47zM49,36H50V37H49zM50,36H51V37H50zM51,36H52V37H51zM4,37H5V38H4zM7,37H8V38H7zM8,37H9V38H8zM11,37H12V38H11zM14,37H15V38H14zM17,37H18V38H17zM18,37H19V38H18zM19,37H20V38H19zM21,37H22V38H21zM23,37H24V38H23zM25,37H26V38H25zM28,37H29V38H28zM29,37H30V38H29zM30,37H31V38H30zM31,37H32V38H31zM33,37H34V38H33zM35,37H36V38H35zM36,37H37V38H36zM38,37H39V38H38zM39,37H40V38H39zM40,37H41V38H40zM42,37H43V38H42zM43,37H44V38H43zM44,37H45V38H44zM47,37H48V38H47zM49,37H50V38H49zM50,37H51V38H50zM51,37H52V38H51zM8,38H9V39H8zM10,38H11V39H10zM11,38H12V39H11zM13,38H14V39H13zM14,38H15V39H14zM15,38H16V39H15zM19,38H20V39H19zM20,38H21V39H20zM21,38H22V39H21zM25,38H26V39H25zM26,38H27V39H26zM32,38H33V39H32zM33,38H34V39H33zM34,38H35V39H34zM35,38H36V39H35zM37,38H38V39H37zM39,38H40V39H39zM41,38H42V39H41zM42,38H43V39H42zM45,38H46V39H45zM46,38H47V39H46zM47,38H48V39H47zM48,38H49V39H48zM50,38H51V39H50zM51,38H52V39H51zM6,39H7V40H6zM9,39H10V40H9zM11,39H12V40H11zM12,39H13V40H12zM13,39H14V40H13zM15,39H16V40H15zM18,39H19V40H18zM24,39H25V40H24zM27,39H28V40H27zM28,39H29V40H28zM32,39H33V40H32zM34,39H35V40H34zM35,39H36V40H35zM39,39H40V40H39zM40,39H41V40H40zM41,39H42V40H41zM44,39H45V40H44zM45,39H46V40H45zM46,39H47V40H46zM47,39H48V40H47zM49,39H50V40H49zM51,39H52V40H51zM5,40H6V41H5zM9,40H10V41H9zM10,40H11V41H10zM12,40H13V41H12zM13,40H14V41H13zM15,40H16V41H15zM19,40H20V41H19zM20,40H21V41H20zM21,40H22V41H21zM22,40H23V41H22zM24,40H25V41H24zM26,40H27V41H26zM27,40H28V41H27zM29,40H30V41H29zM30,40H31V41H30zM32,40H33V41H32zM34,40H35V41H34zM36,40H37V41H36zM37,40H38V41H37zM38,40H39V41H38zM39,40H40V41H39zM40,40H41V41H40zM42,40H43V41H42zM47,40H48V41H47zM50,40H51V41H50zM51,40H52V41H51zM6,41H7V42H6zM7,41H8V42H7zM9,41H10V42H9zM11,41H12V42H11zM13,41H14V42H13zM15,41H16V42H15zM16,41H17V42H16zM17,41H18V42H17zM18,41H19V42H18zM19,41H20V42H19zM20,41H21V42H20zM23,41H24V42H23zM27,41H28V42H27zM29,41H30V42H29zM30,41H31V42H30zM31,41H32V42H31zM32,41H33V42H32zM34,41H35V42H34zM35,41H36V42H35zM37,41H38V42H37zM39,41H40V42H39zM41,41H42V42H41zM42,41H43V42H42zM43,41H44V42H43zM45,41H46V42H45zM46,41H47V42H46zM47,41H48V42H47zM49,41H50V42H49zM51,41H52V42H51zM52,41H53V42H52zM5,42H6V43H5zM9,42H10V43H9zM10,42H11V43H10zM14,42H15V43H14zM15,42H16V43H15zM16,42H17V43H16zM25,42H26V43H25zM26,42H27V43H26zM28,42H29V43H28zM32,42H33V43H32zM33,42H34V43H33zM36,42H37V43H36zM40,42H41V43H40zM42,42H43V43H42zM48,42H49V43H48zM49,42H50V43H49zM50,42H51V43H50zM51,42H52V43H51zM52,42H53V43H52zM5,43H6V44H5zM6,43H7V44H6zM7,43H8V44H7zM12,43H13V44H12zM14,43H15V44H14zM17,43H18V44H17zM18,43H19V44H18zM19,43H20V44H19zM20,43H21V44H20zM22,43H23V44H22zM24,43H25V44H24zM26,43H27V44H26zM27,43H28V44H27zM31,43H32V44H31zM32,43H33V44H32zM35,43H36V44H35zM37,43H38V44H37zM39,43H40V44H39zM41,43H42V44H41zM44,43H45V44H44zM46,43H47V44H46zM47,43H48V44H47zM48,43H49V44H48zM49,43H50V44H49zM52,43H53V44H52zM4,44H5V45H4zM5,44H6V45H5zM6,44H7V45H6zM10,44H11V45H10zM13,44H14V45H13zM15,44H16V45H15zM17,44H18V45H17zM18,44H19V45H18zM22,44H23V45H22zM24,44H25V45H24zM25,44H26V45H25zM26,44H27V45H26zM27,44H28V45H27zM28,44H29V45H28zM29,44H30V45H29zM30,44H31V45H30zM33,44H34V45H33zM35,44H36V45H35zM36,44H37V45H36zM37,44H38V45H37zM38,44H39V45H38zM39,44H40V45H39zM41,44H42V45H41zM42,44H43V45H42zM44,44H45V45H44zM45,44H46V45H45zM46,44H47V45H46zM47,44H48V45H47zM48,44H49V45H48zM49,44H50V45H49zM50,44H51V45H50zM51,44H52V45H51zM12,45H13V46H12zM13,45H14V46H13zM14,45H15V46H14zM15,45H16V46H15zM16,45H17V46H16zM17,45H18V46H17zM18,45H19V46H18zM20,45H21V46H20zM22,45H23V46H22zM24,45H25V46H24zM26,45H27V46H26zM30,45H31V46H30zM31,45H32V46H31zM34,45H35V46H34zM35,45H36V46H35zM36,45H37V46H36zM37,45H38V46H37zM39,45H40V46H39zM41,45H42V46H41zM43,45H44V46H43zM44,45H45V46H44zM48,45H49V46H48zM51,45H52V46H51zM52,45H53V46H52zM4,46H5V47H4zM5,46H6V47H5zM6,46H7V47H6zM7,46H8V47H7zM8,46H9V47H8zM9,46H10V47H9zM10,46H11V47H10zM15,46H16V47H15zM18,46H19V47H18zM20,46H21V47H20zM21,46H22V47H21zM24,46H25V47H24zM25,46H26V47H25zM26,46H27V47H26zM28,46H29V47H28zM30,46H31V47H30zM31,46H32V47H31zM33,46H34V47H33zM37,46H38V47H37zM38,46H39V47H38zM41,46H42V47H41zM42,46H43V47H42zM44,46H45V47H44zM46,46H47V47H46zM48,46H49V47H48zM49,46H50V47H49zM52,46H53V47H52zM4,47H5V48H4zM10,47H11V48H10zM12,47H13V48H12zM13,47H14V48H13zM15,47H16V48H15zM19,47H20V48H19zM20,47H21V48H20zM24,47H25V48H24zM26,47H27V48H26zM30,47H31V48H30zM31,47H32V48H31zM35,47H36V48H35zM36,47H37V48H36zM41,47H42V48H41zM42,47H43V48H42zM44,47H45V48H44zM48,47H49V48H48zM52,47H53V48H52zM4,48H5V49H4zM6,48H7V49H6zM7,48H8V49H7zM8,48H9V49H8zM10,48H11V49H10zM12,48H13V49H12zM14,48H15V49H14zM17,48H18V49H17zM18,48H19V49H18zM20,48H21V49H20zM21,48H22V49H21zM23,48H24V49H23zM25,48H26V49H25zM26,48H27V49H26zM27,48H28V49H27zM28,48H29V49H28zM29,48H30V49H29zM30,48H31V49H30zM31,48H32V49H31zM32,48H33V49H32zM33,48H34V49H33zM34,48H35V49H34zM36,48H37V49H36zM37,48H38V49H37zM40,48H41V49H40zM44,48H45V49H44zM45,48H46V49H45zM46,48H47V49H46zM47,48H48V49H47zM48,48H49V49H48zM51,48H52V49H51zM52,48H53V49H52zM4,49H5V50H4zM6,49H7V50H6zM7,49H8V50H7zM8,49H9V50H8zM10,49H11V50H10zM13,49H14V50H13zM14,49H15V50H14zM16,49H17V50H16zM18,49H19V50H18zM19,49H20V50H19zM20,49H21V50H20zM22,49H23V50H22zM28,49H29V50H28zM32,49H33V50H32zM36,49H37V50H36zM40,49H41V50H40zM41,49H42V50H41zM43,49H44V50H43zM47,49H48V50H47zM48,49H49V50H48zM49,49H50V50H49zM50,49H51V50H50zM51,49H52V50H51zM52,49H53V50H52zM4,50H5V51H4zM6,50H7V51H6zM7,50H8V51H7zM8,50H9V51H8zM10,50H11V51H10zM12,50H13V51H12zM13,50H14V51H13zM18,50H19V51H18zM19,50H20V51H19zM20,50H21V51H20zM21,50H22V51H21zM24,50H25V51H24zM26,50H27V51H26zM27,50H28V51H27zM29,50H30V51H29zM31,50H32V51H31zM34,50H35V51H34zM35,50H36V51H35zM37,50H38V51H37zM39,50H40V51H39zM43,50H44V51H43zM46,50H47V51H46zM48,50H49V51H48zM49,50H50V51H49zM50,50H51V51H50zM52,50H53V51H52zM4,51H5V52H4zM10,51H11V52H10zM14,51H15V52H14zM15,51H16V52H15zM17,51H18V52H17zM18,51H19V52H18zM19,51H20V52H19zM23,51H24V52H23zM24,51H25V52H24zM26,51H27V52H26zM29,51H30V52H29zM30,51H31V52H30zM31,51H32V52H31zM32,51H33V52H32zM35,51H36V52H35zM36,51H37V52H36zM38,51H39V52H38zM39,51H40V52H39zM40,51H41V52H40zM41,51H42V52H41zM43,51H44V52H43zM44,51H45V52H44zM46,51H47V52H46zM47,51H48V52H47zM51,51H52V52H51zM4,52H5V53H4zM5,52H6V53H5zM6,52H7V53H6zM7,52H8V53H7zM8,52H9V53H8zM9,52H10V53H9zM10,52H11V53H10zM14,52H15V53H14zM15,52H16V53H15zM16,52H17V53H16zM17,52H18V53H17zM19,52H20V53H19zM21,52H22V53H21zM22,52H23V53H22zM25,52H26V53H25zM26,52H27V53H26zM27,52H28V53H27zM29,52H30V53H29zM30,52H31V53H30zM31,52H32V53H31zM33,52H34V53H33zM34,52H35V53H34zM36,52H37V53H36zM38,52H39V53H38zM39,52H40V53H39zM40,52H41V53H40zM41,52H42V53H41zM43,52H44V53H43zM48,52H49V53H48zM49,52H50V53H49zM51,52H52V53H51zM52,52H53V53H52z" id="qr-path" fill="#000000" fill-opacity="1" fill-rule="nonzero" stroke="none" /></svg>